<?xml version="1.0" standalone="no"?><svg xmlns="http://www.w3.org/2000/svg" viewBox="0 0 1440 320"><path fill="#000000" fill-opacity="1" d="M0,288L26.7,282.7C53.3,277,107,267,160,234.7C213.3,203,267,149,320,149.3C373.3,149,427,203,480,218.7C533.3,235,587,213,640,197.3C693.3,181,747,171,800,170.7C853.3,171,907,181,960,197.3C1013.3,213,1067,235,1120,218.7C1173.3,203,1227,149,1280,154.7C1333.3,160,1387,224,1413,256L1440,288L1440,320L1413.3,320C1386.7,320,1333,320,1280,320C1226.7,320,1173,320,1120,320C1066.7,320,1013,320,960,320C906.7,320,853,320,800,320C746.7,320,693,320,640,320C586.7,320,533,320,480,320C426.7,320,373,320,320,320C266.7,320,213,320,160,320C106.7,320,53,320,27,320L0,320Z"></path></svg>